<svg width="14" height="12" viewBox="0 0 14 12" fill="inherit" xmlns="http://www.w3.org/2000/svg">
<path d="M11.0002 11.3334H1.00016C0.823223 11.3352 0.653064 11.2654 0.528382 11.1398C0.4037 11.0142 0.335093 10.8436 0.338163 10.6667H0.333496V1.33333C0.333496 0.596954 0.93045 0 1.66683 0H5.66683C5.81574 0.000141993 5.96031 0.0501319 6.0775 0.142L7.60016 1.33333H11.0002C11.7365 1.33333 12.3335 1.93029 12.3335 2.66667V5.33333H13.0002C13.2243 5.33336 13.4333 5.44597 13.5567 5.63306C13.68 5.82015 13.7011 6.0567 13.6128 6.26267L11.6128 10.9293C11.5078 11.1744 11.2668 11.3334 11.0002 11.3334ZM3.44016 6.66667L2.0115 10H10.5608L11.9895 6.66667H3.44016ZM1.66683 2.66667V7.42L2.3875 5.73733C2.49255 5.49226 2.73353 5.33336 3.00016 5.33333H11.0002V2.66667H1.66683Z" fill="inherit"/>
</svg>
