<svg width="24" height="24" viewBox="0 0 24 24" fill="inherit" xmlns="http://www.w3.org/2000/svg">
<path fill-rule="evenodd" clip-rule="evenodd" d="M6.60019 4.44027C6.60019 3.86741 6.82777 3.318 7.23284 2.91292C7.63792 2.50784 8.18733 2.28027 8.7602 2.28027H15.2402C15.8131 2.28027 16.3625 2.50784 16.7675 2.91292C17.1726 3.318 17.4002 3.86741 17.4002 4.44027V6.60027H20.6402C21.2131 6.60027 21.7625 6.82784 22.1675 7.23292C22.5726 7.638 22.8002 8.18741 22.8002 8.76027V10.9203L12.2642 14.0643C12.0907 14.1063 11.9097 14.1063 11.7362 14.0643L1.2002 10.9203V8.76027C1.2002 8.18741 1.42777 7.638 1.83284 7.23292C2.23792 6.82784 2.78733 6.60027 3.3602 6.60027H6.60019V4.44027ZM15.2402 4.44027H8.7602V6.60027H15.2402V4.44027Z" fill="inherit"/>
<path d="M22.8002 13.0801L12.7862 16.1581C12.2698 16.284 11.7306 16.284 11.2142 16.1581L1.2002 13.0801V19.5601C1.2002 20.1329 1.42777 20.6823 1.83284 21.0874C2.23792 21.4925 2.78733 21.7201 3.3602 21.7201H20.6402C21.2131 21.7201 21.7625 21.4925 22.1675 21.0874C22.5726 20.6823 22.8002 20.1329 22.8002 19.5601V13.0801Z" fill="inherit"/>
</svg>
