<svg width="16" height="16" viewBox="0 0 16 16" fill="inherit" xmlns="http://www.w3.org/2000/svg">
<path d="M11.9998 14.6667H3.99984C3.26346 14.6667 2.6665 14.0697 2.6665 13.3333V2.66668C2.6665 1.9303 3.26346 1.33334 3.99984 1.33334H8.6665C8.67248 1.33257 8.67853 1.33257 8.6845 1.33334H8.6885C8.6948 1.33532 8.70128 1.33666 8.70784 1.33734C8.76663 1.34111 8.82467 1.35254 8.8805 1.37134H8.8905H8.9005H8.9085C8.9208 1.37996 8.9324 1.38955 8.94317 1.40001C9.0158 1.43229 9.08198 1.47747 9.1385 1.53334L13.1385 5.53335C13.1944 5.58987 13.2396 5.65605 13.2718 5.72868C13.2778 5.74334 13.2825 5.75734 13.2872 5.77268L13.2938 5.79134C13.3124 5.84694 13.3234 5.9048 13.3265 5.96335C13.3271 5.96999 13.3287 5.9765 13.3312 5.98268V5.98668C13.3323 5.99105 13.3329 5.99551 13.3332 6.00001V13.3333C13.3332 13.687 13.1927 14.0261 12.9426 14.2762C12.6926 14.5262 12.3535 14.6667 11.9998 14.6667ZM8.6665 2.66668V6.00001H11.9998L8.6665 2.66668Z" fill="inherit"/>
</svg>
