<svg width="64" height="111" viewBox="0 0 64 111" fill="none" xmlns="http://www.w3.org/2000/svg">
<g clip-path="url(#clip0_1811_25107)">
<path d="M32 83.2246V110.5L63.4457 96.8611L32 83.2246Z" fill="#CDECF0"/>
<path d="M32.0007 110.5V83.2246L0.552734 96.8611L32.0007 110.5Z" fill="#45CAE2"/>
<path d="M31.8027 55.25L32.001 83.2248L63.4467 96.8613L31.8027 55.25Z" fill="#45CAE2"/>
<path d="M31.8024 55.25L32.0007 83.2248L0.552734 96.8613L31.8024 55.25Z" fill="#CDECF0"/>
<path d="M32 27.2752V0L63.4457 13.6387L32 27.2752Z" fill="#45CAE2"/>
<path d="M32.0007 0V27.2752L0.552734 13.6387L32.0007 0Z" fill="#CDECF0"/>
<path d="M31.8027 55.2499L32.001 27.2752L63.4467 13.6387L31.8027 55.2499Z" fill="#CDECF0"/>
<path d="M31.8024 55.2499L32.0007 27.2752L0.552734 13.6387L31.8024 55.2499Z" fill="#45CAE2"/>
<path d="M31.8024 55.2499L0.552734 13.6387L20.3937 55.2499L0.595063 96.8456L31.8024 55.2499Z" fill="#0071BA"/>
<path d="M31.8027 55.2343L63.4467 96.8612L43.2136 55.2343L63.4467 13.6387L31.8027 55.2343Z" fill="#0071BA"/>
</g>
<defs>
<clipPath id="clip0_1811_25107">
<rect width="62.8937" height="110.5" fill="white" transform="translate(0.552734)"/>
</clipPath>
</defs>
</svg>
