<svg xmlns="http://www.w3.org/2000/svg" xmlns:xlink="http://www.w3.org/1999/xlink" viewBox="0 0 128.87 36.38"><defs><style>.cls-1{fill:none;}.cls-2{isolation:isolate;}.cls-3{fill:#517693;}.cls-4{mix-blend-mode:multiply;}.cls-5{clip-path:url(#clip-path);}.cls-6{fill:#78c8f1;}.cls-7{fill:#c8e6f9;}.cls-8{fill:#0077bc;}</style><clipPath id="clip-path" transform="translate(-13.27 -14.18)"><rect class="cls-1" x="13.27" y="23.45" width="11.3" height="11.3"/></clipPath></defs><g class="cls-2"><g id="Calque_1" data-name="Calque 1"><rect class="cls-3" x="6.78" y="14.24" width="22.6" height="22.14"/><g class="cls-4"><g class="cls-5"><rect class="cls-6" y="9.26" width="11.3" height="11.3"/></g></g><rect class="cls-7" x="9.94" width="6.78" height="6.78"/><rect class="cls-8" x="3.45" y="3.44" width="3.39" height="3.39"/><path class="cls-8" d="M51.14,35.57h3.28c2.26,0,3.49,1.26,3.49,3.74A5.64,5.64,0,0,1,56.5,43c-1,1-1.87,1.5-4.1,1.5H49.27Zm0,7.65h1.95c2.69,0,3.3-3,3.3-3.93,0-1.56-.72-2.45-2-2.45h-2Z" transform="translate(-13.27 -14.18)"/><path class="cls-8" d="M59.22,38h1.42L59.3,44.49H57.88Zm.51-2.46h1.41l-.27,1.35H59.45Z" transform="translate(-13.27 -14.18)"/><path class="cls-8" d="M66.56,44.32c-.42,2-1.22,2.73-3.26,2.73-1.43,0-2.75-.55-2.77-2.06H62c0,.74.67,1,1.48,1,1.27,0,1.6-.76,1.82-1.81l.14-.64,0,0a2.18,2.18,0,0,1-1.83,1A2.37,2.37,0,0,1,61,41.84c0-2,1.17-4,3.34-4a1.92,1.92,0,0,1,2,1.25h0L66.58,38h1.35Zm-2.76-1c1.53,0,2.15-1.55,2.15-2.86A1.35,1.35,0,0,0,64.52,39c-1.39,0-2.07,1.61-2.07,2.79C62.45,42.64,62.84,43.37,63.8,43.37Z" transform="translate(-13.27 -14.18)"/><path class="cls-8" d="M69.14,38h1.43l-1.34,6.46H67.8Zm.51-2.46h1.41l-.27,1.35H69.38Z" transform="translate(-13.27 -14.18)"/><path class="cls-8" d="M72.7,36.09h1.39L73.69,38H75l-.23,1.06H73.47l-.67,3.17a4.09,4.09,0,0,0-.12.7c0,.27.09.47.51.47a3.51,3.51,0,0,0,.76-.06l-.23,1.05a5.33,5.33,0,0,1-1.18.13c-1,0-1.29-.59-1.29-1.19a4.79,4.79,0,0,1,.09-.73l.74-3.54H71L71.18,38H72.3Z" transform="translate(-13.27 -14.18)"/><path class="cls-8" d="M80.23,42.62a3.82,3.82,0,0,0-.13.64c0,.17.08.28.3.28s.34-.06.5-.07l-.22,1a4.76,4.76,0,0,1-1.12.18.83.83,0,0,1-.86-.83,3.1,3.1,0,0,1-2.17.83,1.8,1.8,0,0,1-2-1.73c0-1.58,1.28-2.13,2.71-2.22l1.42-.11a.76.76,0,0,0,.75-.85c0-.62-.5-.78-1.09-.78-.77,0-1.41.21-1.61,1H75.35c.32-1.6,1.52-2.13,3.05-2.13,2.35,0,2.43,1,2.43,1.5a4.4,4.4,0,0,1-.13,1Zm-3.15.92c1.39,0,1.85-1,2-2.22l0,0a1.51,1.51,0,0,1-.89.3c-.8.07-2.26,0-2.26,1.13C75.94,43.34,76.55,43.54,77.08,43.54Z" transform="translate(-13.27 -14.18)"/><path class="cls-8" d="M83,35.57h1.42L82.6,44.49H81.18Z" transform="translate(-13.27 -14.18)"/><path class="cls-8" d="M84.47,42.8h1.75c-.39,1.46-.34,3.42-2.32,3.52l.14-.73c.63-.08.89-.52,1-1.1h-1Z" transform="translate(-13.27 -14.18)"/><path class="cls-8" d="M92.43,35.57H95.7c2.26,0,3.5,1.26,3.5,3.74A5.7,5.7,0,0,1,97.79,43c-1.05,1-1.88,1.5-4.1,1.5H90.55Zm0,7.65h2c2.69,0,3.3-3,3.3-3.93,0-1.56-.73-2.45-2-2.45h-2Z" transform="translate(-13.27 -14.18)"/><path class="cls-8" d="M104.91,42.62a3.7,3.7,0,0,0-.12.64c0,.17.07.28.3.28s.34-.06.5-.07l-.23,1a4.6,4.6,0,0,1-1.11.18.82.82,0,0,1-.86-.83,3.11,3.11,0,0,1-2.18.83,1.8,1.8,0,0,1-2-1.73c0-1.58,1.29-2.13,2.71-2.22l1.43-.11a.76.76,0,0,0,.75-.85c0-.62-.5-.78-1.09-.78-.77,0-1.41.21-1.61,1H100c.31-1.6,1.51-2.13,3-2.13,2.35,0,2.42,1,2.42,1.5a4.3,4.3,0,0,1-.12,1Zm-3.15.92c1.39,0,1.85-1,2-2.22l0,0a1.53,1.53,0,0,1-.89.3c-.8.07-2.26,0-2.26,1.13C100.63,43.34,101.24,43.54,101.76,43.54Z" transform="translate(-13.27 -14.18)"/><path class="cls-8" d="M108,36.09h1.39L109,38h1.29l-.23,1.06h-1.29l-.66,3.17a4.09,4.09,0,0,0-.12.7c0,.27.09.47.51.47a3.51,3.51,0,0,0,.76-.06L109,44.42a5.18,5.18,0,0,1-1.17.13c-1,0-1.29-.59-1.29-1.19a3.78,3.78,0,0,1,.09-.73l.74-3.54h-1.13l.23-1.06h1.12Z" transform="translate(-13.27 -14.18)"/><path class="cls-8" d="M115.53,42.62a3.82,3.82,0,0,0-.13.64c0,.17.08.28.3.28s.34-.06.5-.07l-.22,1a4.76,4.76,0,0,1-1.12.18.83.83,0,0,1-.86-.83,3.1,3.1,0,0,1-2.17.83,1.79,1.79,0,0,1-2-1.73c0-1.58,1.28-2.13,2.71-2.22l1.42-.11a.76.76,0,0,0,.75-.85c0-.62-.5-.78-1.09-.78-.77,0-1.41.21-1.61,1h-1.35c.31-1.6,1.51-2.13,3-2.13,2.35,0,2.43,1,2.43,1.5a4.4,4.4,0,0,1-.13,1Zm-3.15.92c1.38,0,1.85-1,2-2.22l0,0a1.53,1.53,0,0,1-.89.3c-.8.07-2.26,0-2.26,1.13C111.24,43.34,111.85,43.54,112.38,43.54Z" transform="translate(-13.27 -14.18)"/><path class="cls-8" d="M127.17,44.49h-1.58l-.5-.82a3.33,3.33,0,0,1-2.45,1,2.42,2.42,0,0,1-2.59-2.48c0-1.41,1.31-2.23,2.45-2.76a3.2,3.2,0,0,1-.66-1.8,2.19,2.19,0,0,1,2.29-2.27,2,2,0,0,1,2.22,2c0,1.23-1.15,1.93-2.11,2.44l1.16,1.9a3.33,3.33,0,0,0,.74-1.49h1.28a5.24,5.24,0,0,1-1.34,2.54Zm-4.07-4.1c-.62.3-1.7,1-1.7,1.88a1.26,1.26,0,0,0,1.28,1.27,2.51,2.51,0,0,0,1.8-.88Zm0-2.82a2.79,2.79,0,0,0,.53,1.37c.6-.33,1.44-.75,1.44-1.55a.86.86,0,0,0-.89-1A1,1,0,0,0,123.11,37.57Z" transform="translate(-13.27 -14.18)"/><path class="cls-8" d="M133.08,35.57h1.56l-1.86,8.92h-1.57Z" transform="translate(-13.27 -14.18)"/><path class="cls-8" d="M136.05,41.54c-.06,1.39.75,1.89,2,1.89.85,0,2-.39,2-1.42s-1-1.27-2.14-1.57c-.79-.21-2.44-.61-2.44-2.31s1.22-2.77,3.33-2.77c1.86,0,3.37.75,3.3,2.85h-1.5c0-1.12-.62-1.58-1.83-1.58-.42,0-1.73.13-1.73,1.31,0,.88.87,1.09,1.86,1.34,1.26.33,2.71.66,2.71,2.54,0,1.39-1,2.89-3.71,2.89-2.1,0-3.45-.94-3.39-3.17Z" transform="translate(-13.27 -14.18)"/></g></g></svg>