<svg width="96" height="32" viewBox="0 0 96 32" fill="inherit" xmlns="http://www.w3.org/2000/svg">
<g clip-path="url(#clip0_2488_267477)">
<path d="M52.4327 25.7414C52.4327 25.6811 52.481 25.3314 52.2639 25.0903C52.1433 24.9576 51.7575 24.8491 51.4681 24.8491C50.7566 24.8491 50.3105 25.0059 50.2261 25.4038C50.0934 25.9946 50.8531 26.1755 51.4319 26.2358C52.5774 26.3564 54.6153 26.8026 54.1812 28.7922C53.7109 30.9145 51.5886 31.5174 50.1055 31.5174C48.2002 31.5174 46.5121 30.8301 46.9462 28.6475L49.2131 28.5631C49.0323 29.3107 49.394 29.7569 50.431 29.7569C50.9496 29.7448 51.6369 29.6604 51.7213 29.1178C51.8901 28.0325 50.3708 28.4546 48.767 27.6949C48.0194 27.3331 47.6576 26.489 47.8505 25.6208C48.3449 23.7156 50.3828 23.0645 51.6369 23.0645C53.3251 23.0645 55.0735 23.6915 54.6877 25.6449L52.4327 25.7414V25.7414Z" fill="inherit" stroke="#333333" stroke-width="0.339868"/>
<path d="M54.3018 31.191L56.0382 23.1602H62.2603L61.8744 24.9207H57.9193L57.654 26.1627H61.1871L60.8012 27.9232H57.2681L56.9425 29.4185H60.9098L60.5239 31.191H54.3018Z" fill="inherit" stroke="#333333" stroke-width="0.339868"/>
<path d="M75.2714 23.1602H77.5866L72.9923 31.191H70.8821L69.7366 23.1602H72.2327L72.7029 28.4538H72.7271L75.2714 23.1602H75.2714Z" fill="inherit" stroke="#333333" stroke-width="0.339868"/>
<path d="M76.3807 31.191L78.1171 23.1602H80.3841L78.6477 31.191H76.3807Z" fill="inherit" stroke="#333333" stroke-width="0.339868"/>
<path d="M79.7691 31.191L81.5055 23.1602H87.7156L87.3418 24.9207H83.3746L83.1093 26.1627H86.6424L86.2565 27.9232H82.7355L82.4099 29.4185H86.365L85.9792 31.191H79.7691Z" fill="inherit" stroke="#333333" stroke-width="0.339868"/>
<path d="M67.5781 27.3082C68.4221 27.5012 68.6151 27.6941 68.4463 29.6958C68.3739 30.6725 68.4704 30.5399 68.5186 31.191H66.2034C66.0708 30.5037 66.1431 29.2858 66.1431 29.2858C66.1431 29.2858 66.2516 28.3211 65.094 28.3211H64.2499L63.635 31.191H61.368L63.1044 23.1602H66.8787C68.2654 23.1602 69.5677 23.3049 69.4833 25.0774C69.4109 26.3074 68.3377 26.9827 67.5781 27.3082H67.5781ZM65.5161 26.5606C66.2396 26.5606 66.8907 26.6209 67.0716 25.8492C67.2645 25.0292 66.5652 24.9207 65.8417 24.9207H64.9614L64.6358 26.5606H65.5161Z" fill="inherit" stroke="#333333" stroke-width="0.339868"/>
<path d="M23.8182 14.5624H76.4531L26.3384 11.7637L23.8182 14.5624Z" fill="inherit" stroke="#333333" stroke-width="0.339868"/>
<path d="M27.2548 10.7672H65.9261L29.7871 7.96484L27.2548 10.7672Z" fill="inherit" stroke="#333333" stroke-width="0.339868"/>
<path d="M30.6915 6.96839H55.1097L33.2117 4.16602L30.6915 6.96839Z" fill="inherit" stroke="#333333" stroke-width="0.339868"/>
<path d="M34.1281 3.17017H44.2572L36.6604 0.457031L34.1281 3.17017Z" fill="inherit" stroke="#333333" stroke-width="0.339868"/>
<path d="M49.6835 17.0938H0.750488L47.1512 19.9034L49.6835 17.0938Z" fill="inherit" stroke="#333333" stroke-width="0.339868"/>
<path d="M46.2468 20.8926H10.2043L43.7266 23.7022L46.2468 20.8926Z" fill="inherit" stroke="#333333" stroke-width="0.339868"/>
<path d="M42.8102 24.6914H20.0198L40.2779 27.501L42.8102 24.6914Z" fill="inherit" stroke="#333333" stroke-width="0.339868"/>
<path d="M39.3735 28.4902H29.2445L36.8413 31.2034L39.3735 28.4902Z" fill="inherit" stroke="#333333" stroke-width="0.339868"/>
<path d="M93.1299 27.3082C93.974 27.5012 94.1669 27.6941 93.9981 29.6958C93.9137 30.6725 94.0102 30.5399 94.0704 31.191H91.7552C91.6226 30.5037 91.6949 29.2858 91.6949 29.2858C91.6949 29.2858 91.8034 28.3211 90.6458 28.3211H89.8017L89.1868 31.191H86.9198L88.6562 23.1602H92.4305C93.8172 23.1602 95.1195 23.3049 95.023 25.0774C94.9627 26.3074 93.8895 26.9827 93.1299 27.3082H93.1299ZM91.0679 26.5606C91.7914 26.5606 92.4425 26.6209 92.6234 25.8492C92.8163 25.0292 92.117 24.9207 91.3935 24.9207H90.5132L90.1876 26.5606H91.0679Z" fill="inherit" stroke="#333333" stroke-width="0.339868"/>
<path d="M14.1835 0.9375L13.2912 5.37258L9.7436 2.55453L11.9021 6.5338L7.37775 6.64715L11.5897 8.3088L8.19772 11.3065L12.4893 9.87036L11.8249 14.3452L14.1835 10.4914L16.547 14.3452L15.8837 9.87036L20.1645 11.3077L16.7761 8.3088L20.9844 6.64715L16.4625 6.5326L18.6331 2.55453L15.0879 5.37137L14.1835 0.9375Z" fill="inherit" stroke="#333333" stroke-width="0.339868"/>
</g>
<defs>
<clipPath id="clip0_2488_267477">
<rect width="95.1436" height="32" fill="white" transform="translate(0.367737)"/>
</clipPath>
</defs>
</svg>
