<svg width="16" height="16" viewBox="0 0 16 16" fill="inherit" xmlns="http://www.w3.org/2000/svg">
<rect width="16" height="16" fill="#F2F2F2"/>
<path d="M10.6667 12.334C10.6667 12.8863 10.2189 13.334 9.66666 13.334L2.99999 13.334C2.44771 13.334 1.99999 12.8863 1.99999 12.334L1.99999 3.66732C1.99999 3.11503 2.44771 2.66732 2.99999 2.66732L9.66666 2.66732C10.2189 2.66732 10.6667 3.11503 10.6667 3.66732L10.6667 5.33398C10.6667 5.70217 10.3682 6.00065 9.99999 6.00065C9.6318 6.00065 9.33332 5.70217 9.33332 5.33398L9.33332 4.00065L3.33332 4.00065L3.33332 12.0007L9.33332 12.0007L9.33332 10.6673C9.33332 10.2991 9.6318 10.0007 9.99999 10.0007C10.3682 10.0007 10.6667 10.2991 10.6667 10.6673L10.6667 12.334Z" fill="inherit"/>
<path d="M12 10.1845C12 10.3627 12.2154 10.4519 12.3414 10.3259L14.5252 8.14207C14.6033 8.06397 14.6033 7.93733 14.5252 7.85923L12.3414 5.67541C12.2154 5.54941 12 5.63865 12 5.81683L12 7.33398L6.66666 7.33398C6.29847 7.33398 5.99999 7.63246 5.99999 8.00065C5.99999 8.36884 6.29847 8.66732 6.66666 8.66732L12 8.66732L12 10.1845Z" fill="inherit"/>
</svg>
