<svg width="16" height="16" viewBox="0 0 16 16" fill="inherit" xmlns="http://www.w3.org/2000/svg">
<path d="M12.9533 8.65398C12.98 8.44065 13 8.22732 13 8.00065C13 7.77398 12.98 7.56065 12.9533 7.34732L14.36 6.24732C14.4867 6.14732 14.52 5.96732 14.44 5.82065L13.1067 3.51398C13.0267 3.36732 12.8467 3.31398 12.7 3.36732L11.04 4.03398C10.6933 3.76732 10.32 3.54732 9.91335 3.38065L9.66002 1.61398C9.64002 1.45398 9.50002 1.33398 9.33335 1.33398H6.66668C6.50002 1.33398 6.36002 1.45398 6.34002 1.61398L6.08668 3.38065C5.68002 3.54732 5.30668 3.77398 4.96002 4.03398L3.30001 3.36732C3.14668 3.30732 2.97335 3.36732 2.89335 3.51398L1.56001 5.82065C1.47335 5.96732 1.51335 6.14732 1.64002 6.24732L3.04668 7.34732C3.02002 7.56065 3.00002 7.78065 3.00002 8.00065C3.00002 8.22065 3.02002 8.44065 3.04668 8.65398L1.64002 9.75398C1.51335 9.85398 1.48001 10.034 1.56001 10.1807L2.89335 12.4873C2.97335 12.634 3.15335 12.6873 3.30001 12.634L4.96002 11.9673C5.30668 12.234 5.68002 12.454 6.08668 12.6207L6.34002 14.3873C6.36002 14.5473 6.50002 14.6673 6.66668 14.6673H9.33335C9.50002 14.6673 9.64002 14.5473 9.66002 14.3873L9.91335 12.6207C10.32 12.454 10.6933 12.2273 11.04 11.9673L12.7 12.634C12.8533 12.694 13.0267 12.634 13.1067 12.4873L14.44 10.1807C14.52 10.034 14.4867 9.85398 14.36 9.75398L12.9533 8.65398ZM8.00002 10.334C6.71335 10.334 5.66668 9.28732 5.66668 8.00065C5.66668 6.71398 6.71335 5.66732 8.00002 5.66732C9.28668 5.66732 10.3333 6.71398 10.3333 8.00065C10.3333 9.28732 9.28668 10.334 8.00002 10.334Z" fill="inherit"/>
</svg>
